<svg xmlns="http://www.w3.org/2000/svg" width="800" height="184" viewBox="0 0 800 184" role="img" aria-labelledby="title">
<title id="title">Package downloads: 776,093 all time, 64,138 in the last 30 days. PyPI 649,232 all time, 47,042 in the last 30 days; crates.io 66,594 all time, 12,666 in the last 30 days; npm 48,702 all time, 4,022 in the last 30 days; Docker 8,038 all time, unknown in the last 30 days; NuGet 2,776 all time, unknown in the last 30 days; GitHub 751 all time, unknown in the last 30 days; pub.dev unknown all time, 408 in the last 30 days.</title>
<style>
text { font-family: -apple-system, BlinkMacSystemFont, 'Segoe UI', 'Noto Sans', Helvetica, Arial, sans-serif; fill: #f0f6fc; }
.big { font-size: 32px; font-weight: 700; }
.mid { font-size: 24px; font-weight: 600; }
.label, .value { font-size: 13px; }
.value { font-weight: 600; }
.caption, .delta, .foot { font-size: 12px; }
.caption, .delta, .foot { fill: #9198a1; }
</style>
<rect width="800" height="184" rx="6" fill="#151b23"/>
<text x="24" y="48" class="big">776K</text>
<text x="24" y="68" class="caption">all time</text>
<text x="131.43" y="48" class="mid">+64.1K</text>
<text x="131.43" y="68" class="caption">last 30 days</text>
<text x="776" y="30" class="foot" text-anchor="end">updated 9 Oct</text>
<clipPath id="bar"><rect x="24" y="90" width="752" height="8" rx="4"/></clipPath><g clip-path="url(#bar)"><rect x="24.00" y="90" width="620.71" height="8" fill="#3987e5"/><rect x="646.71" y="90" width="63.67" height="8" fill="#c98500"/><rect x="712.38" y="90" width="46.56" height="8" fill="#d55181"/><rect x="760.94" y="90" width="7.68" height="8" fill="#008300"/><rect x="770.63" y="90" width="2.65" height="8" fill="#9085e9"/><rect x="775.28" y="90" width="0.72" height="8" fill="#e66767"/></g>
<circle cx="29.00" cy="122" r="5" fill="#3987e5"/><text x="40.00" y="126" class="label">PyPI</text><text x="40.00" y="146" class="value">649K</text><text x="40.00" y="164" class="delta">+47K</text><circle cx="136.43" cy="122" r="5" fill="#c98500"/><text x="147.43" y="126" class="label">crates.io</text><text x="147.43" y="146" class="value">66.6K</text><text x="147.43" y="164" class="delta">+12.7K</text><circle cx="243.86" cy="122" r="5" fill="#d55181"/><text x="254.86" y="126" class="label">npm</text><text x="254.86" y="146" class="value">48.7K</text><text x="254.86" y="164" class="delta">+4.02K</text><circle cx="351.29" cy="122" r="5" fill="#008300"/><text x="362.29" y="126" class="label">Docker</text><text x="362.29" y="146" class="value">8.04K</text><text x="362.29" y="164" class="delta">n/a</text><circle cx="458.71" cy="122" r="5" fill="#9085e9"/><text x="469.71" y="126" class="label">NuGet</text><text x="469.71" y="146" class="value">2.78K</text><text x="469.71" y="164" class="delta">n/a</text><circle cx="566.14" cy="122" r="5" fill="#e66767"/><text x="577.14" y="126" class="label">GitHub</text><text x="577.14" y="146" class="value">751</text><text x="577.14" y="164" class="delta">n/a</text><circle cx="673.57" cy="122" r="5" fill="#199e70"/><text x="684.57" y="126" class="label">pub.dev</text><text x="684.57" y="146" class="value">n/a</text><text x="684.57" y="164" class="delta">+408</text>
</svg>
