<svg xmlns="http://www.w3.org/2000/svg" width="340" height="246" viewBox="0 0 340 246" role="img" aria-labelledby="title">
<title id="title">Package downloads: 776,093 all time, 64,138 in the last 30 days. PyPI 649,232 all time, 47,042 in the last 30 days; crates.io 66,594 all time, 12,666 in the last 30 days; npm 48,702 all time, 4,022 in the last 30 days; Docker 8,038 all time, unknown in the last 30 days; NuGet 2,776 all time, unknown in the last 30 days; GitHub 751 all time, unknown in the last 30 days; pub.dev unknown all time, 408 in the last 30 days.</title>
<style>
text { font-family: -apple-system, BlinkMacSystemFont, 'Segoe UI', 'Noto Sans', Helvetica, Arial, sans-serif; fill: #f0f6fc; }
.big { font-size: 32px; font-weight: 700; }
.mid { font-size: 24px; font-weight: 600; }
.label, .value { font-size: 13px; }
.value { font-weight: 600; }
.caption, .delta, .foot { font-size: 12px; }
.caption, .delta, .foot { fill: #9198a1; }
</style>
<rect width="340" height="246" rx="6" fill="#151b23"/>
<text x="24" y="48" class="big">776K</text>
<text x="24" y="68" class="caption">all time</text>
<text x="121.33" y="48" class="mid">+64.1K</text>
<text x="121.33" y="68" class="caption">last 30 days</text>
<text x="316" y="30" class="foot" text-anchor="end">updated 9 Oct</text>
<clipPath id="bar"><rect x="24" y="90" width="292" height="8" rx="4"/></clipPath><g clip-path="url(#bar)"><rect x="24.00" y="90" width="237.58" height="8" fill="#3987e5"/><rect x="263.58" y="90" width="24.37" height="8" fill="#c98500"/><rect x="289.95" y="90" width="17.82" height="8" fill="#d55181"/><rect x="309.77" y="90" width="2.94" height="8" fill="#008300"/><rect x="314.71" y="90" width="1.29" height="8" fill="#adb5bf"/></g>
<circle cx="29.00" cy="122" r="5" fill="#3987e5"/><text x="40.00" y="126" class="label">PyPI</text><text x="40.00" y="146" class="value">649K</text><text x="40.00" y="164" class="delta">+47K</text><circle cx="126.33" cy="122" r="5" fill="#c98500"/><text x="137.33" y="126" class="label">crates.io</text><text x="137.33" y="146" class="value">66.6K</text><text x="137.33" y="164" class="delta">+12.7K</text><circle cx="223.67" cy="122" r="5" fill="#d55181"/><text x="234.67" y="126" class="label">npm</text><text x="234.67" y="146" class="value">48.7K</text><text x="234.67" y="164" class="delta">+4.02K</text><circle cx="29.00" cy="184" r="5" fill="#008300"/><text x="40.00" y="188" class="label">Docker</text><text x="40.00" y="208" class="value">8.04K</text><text x="40.00" y="226" class="delta">n/a</text><circle cx="126.33" cy="184" r="5" fill="#adb5bf"/><text x="137.33" y="188" class="label">Others</text><text x="137.33" y="208" class="value">3.53K</text><text x="137.33" y="226" class="delta">+408</text>
</svg>
