<svg xmlns="http://www.w3.org/2000/svg" width="495" height="240" viewBox="0 0 495 240" role="img" aria-labelledby="title">
<title id="title">Package downloads: 743,912 all time, 59,168 in the last 30 days. PyPI 649,232 all time, 47,042 in the last 30 days; crates.io 35,164 all time, 8,104 in the last 30 days; Docker 8,038 all time, unknown in the last 30 days; NuGet 2,776 all time, unknown in the last 30 days; npm 48,702 all time, 4,022 in the last 30 days.</title>
<style>
text { font-family: 'Segoe UI', Ubuntu, sans-serif; fill: #c9d1d9; }
.title { font-size: 18px; font-weight: 600; fill: #58a6ff; }
.big { font-size: 32px; font-weight: 700; }
.mid { font-size: 24px; font-weight: 600; }
.caption, .label, .value, .delta { font-size: 12px; }
.value { font-weight: 600; }
.foot { font-size: 10px; }
.caption, .delta, .foot { fill: #8b949e; }
</style>
<rect x="0.5" y="0.5" width="494" height="239" rx="4.5" fill="#0d1117" stroke="#30363d"/>
<text x="25" y="35" class="title">Package downloads</text>
<text x="25" y="80" class="big">744K</text>
<text x="25" y="99" class="caption">all time</text>
<text x="250" y="80" class="mid">+59.2K</text>
<text x="250" y="99" class="caption">last 30 days</text>
<clipPath id="bar"><rect x="25" y="118" width="445" height="8" rx="4"/></clipPath><g clip-path="url(#bar)"><rect x="25.00" y="118" width="381.38" height="8" fill="#3987e5"/><rect x="408.38" y="118" width="20.66" height="8" fill="#c98500"/><rect x="431.04" y="118" width="4.72" height="8" fill="#199e70"/><rect x="437.76" y="118" width="1.63" height="8" fill="#9085e9"/><rect x="441.39" y="118" width="28.61" height="8" fill="#e66767"/></g>
<circle cx="30" cy="150" r="5" fill="#3987e5"/><text x="41" y="154" class="label">PyPI</text><text x="175" y="154" class="value" text-anchor="end">649K</text><text x="230" y="154" class="delta" text-anchor="end">+47K</text><circle cx="30" cy="172" r="5" fill="#c98500"/><text x="41" y="176" class="label">crates.io</text><text x="175" y="176" class="value" text-anchor="end">35.2K</text><text x="230" y="176" class="delta" text-anchor="end">+8.1K</text><circle cx="30" cy="194" r="5" fill="#199e70"/><text x="41" y="198" class="label">Docker</text><text x="175" y="198" class="value" text-anchor="end">8.04K</text><text x="230" y="198" class="delta" text-anchor="end">n/a</text><circle cx="265" cy="150" r="5" fill="#9085e9"/><text x="276" y="154" class="label">NuGet</text><text x="410" y="154" class="value" text-anchor="end">2.78K</text><text x="465" y="154" class="delta" text-anchor="end">n/a</text><circle cx="265" cy="172" r="5" fill="#e66767"/><text x="276" y="176" class="label">npm</text><text x="410" y="176" class="value" text-anchor="end">48.7K</text><text x="465" y="176" class="delta" text-anchor="end">+4.02K</text>
<text x="470" y="226" class="foot" text-anchor="end">updated 9 Oct</text>
</svg>
