<svg xmlns="http://www.w3.org/2000/svg" width="640" height="184" viewBox="0 0 640 184" role="img" aria-labelledby="title">
<title id="title">Package downloads: 776,093 all time, 64,138 in the last 30 days. PyPI 649,232 all time, 47,042 in the last 30 days; crates.io 66,594 all time, 12,666 in the last 30 days; npm 48,702 all time, 4,022 in the last 30 days; Docker 8,038 all time, unknown in the last 30 days; NuGet 2,776 all time, unknown in the last 30 days; GitHub 751 all time, unknown in the last 30 days; pub.dev unknown all time, 408 in the last 30 days.</title>
<style>
text { font-family: -apple-system, BlinkMacSystemFont, 'Segoe UI', 'Noto Sans', Helvetica, Arial, sans-serif; fill: #1f2328; }
.big { font-size: 32px; font-weight: 700; }
.mid { font-size: 24px; font-weight: 600; }
.label, .value { font-size: 13px; }
.value { font-weight: 600; }
.caption, .delta, .foot { font-size: 12px; }
.caption, .delta, .foot { fill: #59636e; }
</style>
<rect width="640" height="184" rx="6" fill="#f6f8fa"/>
<text x="24" y="48" class="big">776K</text>
<text x="24" y="68" class="caption">all time</text>
<text x="122.67" y="48" class="mid">+64.1K</text>
<text x="122.67" y="68" class="caption">last 30 days</text>
<text x="616" y="30" class="foot" text-anchor="end">updated 9 Oct</text>
<clipPath id="bar"><rect x="24" y="90" width="592" height="8" rx="4"/></clipPath><g clip-path="url(#bar)"><rect x="24.00" y="90" width="486.87" height="8" fill="#2a78d6"/><rect x="512.87" y="90" width="49.94" height="8" fill="#eda100"/><rect x="564.81" y="90" width="36.52" height="8" fill="#e87ba4"/><rect x="603.33" y="90" width="6.03" height="8" fill="#008300"/><rect x="611.36" y="90" width="2.08" height="8" fill="#4a3aa7"/><rect x="615.44" y="90" width="0.56" height="8" fill="#6e7781"/></g>
<circle cx="29.00" cy="122" r="5" fill="#2a78d6"/><text x="40.00" y="126" class="label">PyPI</text><text x="40.00" y="146" class="value">649K</text><text x="40.00" y="164" class="delta">+47K</text><circle cx="127.67" cy="122" r="5" fill="#eda100"/><text x="138.67" y="126" class="label">crates.io</text><text x="138.67" y="146" class="value">66.6K</text><text x="138.67" y="164" class="delta">+12.7K</text><circle cx="226.33" cy="122" r="5" fill="#e87ba4"/><text x="237.33" y="126" class="label">npm</text><text x="237.33" y="146" class="value">48.7K</text><text x="237.33" y="164" class="delta">+4.02K</text><circle cx="325.00" cy="122" r="5" fill="#008300"/><text x="336.00" y="126" class="label">Docker</text><text x="336.00" y="146" class="value">8.04K</text><text x="336.00" y="164" class="delta">n/a</text><circle cx="423.67" cy="122" r="5" fill="#4a3aa7"/><text x="434.67" y="126" class="label">NuGet</text><text x="434.67" y="146" class="value">2.78K</text><text x="434.67" y="164" class="delta">n/a</text><circle cx="522.33" cy="122" r="5" fill="#6e7781"/><text x="533.33" y="126" class="label">Others</text><text x="533.33" y="146" class="value">751</text><text x="533.33" y="164" class="delta">+408</text>
</svg>
